<svg width="24" height="24" viewBox="0 0 24 24" fill="none" xmlns="http://www.w3.org/2000/svg">
<path fill-rule="evenodd" clip-rule="evenodd" d="M9.8125 5.43538L12 6.33969L14.1875 5.43538C15.5917 4.85487 17.1583 4.85487 18.5625 5.43538L20.2 6.11231C20.5322 6.24964 20.75 6.58216 20.75 6.95194V17.6643C20.75 18.1637 20.3582 18.5686 19.875 18.5686C19.7637 18.5686 19.6534 18.5467 19.55 18.5039L18.5625 18.0957C17.1583 17.5152 15.5917 17.5152 14.1875 18.0957L12 19L9.8125 18.0957C8.40825 17.5152 6.84175 17.5152 5.4375 18.0957L4.44997 18.5039C4.00128 18.6894 3.49206 18.4639 3.31258 18.0002C3.27124 17.8933 3.25 17.7794 3.25 17.6643V6.95194C3.25 6.58216 3.46783 6.24964 3.80003 6.11231L5.4375 5.43538C6.84175 4.85487 8.40825 4.85487 9.8125 5.43538ZM6.10607 7.05264L5 7.50989V16.3873C6.77224 15.7223 8.72534 15.7526 10.4811 16.4784L11.125 16.7443V7.87175L9.14393 7.05264C8.16783 6.64912 7.08217 6.64912 6.10607 7.05264ZM14.8561 7.05264L12.875 7.87088V16.7443L13.5189 16.4784C15.2747 15.7526 17.2278 15.7223 19 16.3873V7.50989L17.8939 7.05264C16.9178 6.64912 15.8322 6.64912 14.8561 7.05264Z" fill="#303138"/>
</svg>
