<svg width="24" height="24" viewBox="0 0 24 24" fill="none" xmlns="http://www.w3.org/2000/svg">
<path fill-rule="evenodd" clip-rule="evenodd" d="M7.5 18.3C5.01472 18.3 3 16.2853 3 13.8C3 11.7793 4.3405 10.0397 6.22156 9.48427C7.20867 7.21769 9.45941 5.70001 12 5.70001C15.2087 5.70001 17.8571 8.0988 18.2498 11.2009C19.8279 11.5828 21 13.0045 21 14.7C21 16.6096 19.5092 18.1839 17.5846 18.2951L17.4 18.3H7.5ZM17.374 16.5004L17.5066 16.4969C18.4544 16.442 19.2 15.6546 19.2 14.7C19.2 13.7059 18.3941 12.9 17.4 12.9C16.9029 12.9 16.5 12.4971 16.5 12C16.5 9.51472 14.4853 7.5 12 7.5C10.0607 7.5 8.35744 8.73814 7.73986 10.5431C7.63322 10.8548 7.36484 11.0833 7.04016 11.1389C5.75446 11.3589 4.8 12.4799 4.8 13.8C4.8 15.2912 6.00883 16.5 7.5 16.5L17.374 16.5004Z" fill="#303138"/>
</svg>
