<svg width="24" height="24" viewBox="0 0 24 24" fill="none" xmlns="http://www.w3.org/2000/svg">
<path fill-rule="evenodd" clip-rule="evenodd" d="M12 3C16.9706 3 21 7.02944 21 12C21 16.9706 16.9706 21 12 21C7.02944 21 3 16.9706 3 12C3 7.02944 7.02944 3 12 3ZM12 4.8C8.02355 4.8 4.8 8.02355 4.8 12C4.8 15.9764 8.02355 19.2 12 19.2C15.9764 19.2 19.2 15.9764 19.2 12C19.2 8.02355 15.9764 4.8 12 4.8ZM7.76393 7.76393C8.08876 7.43909 8.5984 7.41411 8.95166 7.68896L9.03653 7.76393L12.0002 10.7276L14.9639 7.76393C15.3158 7.41202 15.8846 7.41202 16.2365 7.76393C16.5614 8.08876 16.5863 8.5984 16.3115 8.95166L16.2365 9.03653L13.2728 12.0002L16.2365 14.9639C16.5884 15.3158 16.5884 15.8846 16.2365 16.2365C16.061 16.412 15.8306 16.5002 15.6002 16.5002C15.4082 16.5002 15.2162 16.439 15.056 16.317L14.9639 16.2365L12.0002 13.2728L9.03653 16.2365C8.86102 16.412 8.63063 16.5002 8.40023 16.5002C8.16983 16.5002 7.93942 16.412 7.76393 16.2365C7.43909 15.9117 7.41411 15.4021 7.68896 15.0488L7.76393 14.9639L10.7276 12.0002L7.76393 9.03653C7.41202 8.68463 7.41202 8.11583 7.76393 7.76393Z" fill="#303138"/>
</svg>
