<svg width="24" height="24" viewBox="0 0 24 24" fill="none" xmlns="http://www.w3.org/2000/svg">
<path fill-rule="evenodd" clip-rule="evenodd" d="M11.0076 3.00009L12.9183 3C12.976 3.00268 13.0268 3.00929 13.098 3.0248C13.6205 3.13858 13.8192 3.32619 14.3054 4.47525L14.3847 4.6648L14.6903 5.42202L14.7154 5.43235L15.1092 5.25411C15.9667 4.87063 16.4088 4.70911 16.706 4.66404L16.7676 4.65613L16.8798 4.65008C17.1474 4.65008 17.42 4.74487 17.6286 4.90992L17.7273 4.99818L18.9488 6.2146L19.0337 6.30435C19.4174 6.727 19.4532 7.02665 19.0288 8.11873L18.8876 8.47104L18.5547 9.25866L18.561 9.27404L19.3236 9.55881L19.6912 9.7041C20.6408 10.0924 20.8359 10.2993 20.9629 10.7746C20.9885 10.8705 20.9976 10.9358 21.0005 11.0168L21.0018 11.1048V12.8221C21.0018 12.9442 20.9976 13.0132 20.9676 13.1338C20.8412 13.6413 20.6537 13.8345 19.5124 14.3165L19.3242 14.3951L18.5722 14.6986L18.567 14.7113L18.8389 15.3053C19.515 16.8081 19.5387 17.1376 19.0942 17.6325L19.0387 17.6928L17.7848 18.9457C17.5604 19.1726 17.2405 19.2976 16.9311 19.2976C16.6683 19.2976 16.2556 19.1726 15.552 18.8905L15.1754 18.7362L14.7463 18.5548L14.7218 18.5649L14.5001 19.1595C13.9573 20.5895 13.7714 20.8217 13.2138 20.9655C13.1314 20.9868 13.0725 20.9959 13.0056 20.9996L12.8953 21.0019H11.1769C11.0697 21.0019 11.0091 20.9987 10.9026 20.9756C10.3803 20.8623 10.1809 20.6743 9.69363 19.5246L9.61422 19.3349L9.3081 18.5773L9.28455 18.5676L8.71268 18.8247C7.79796 19.2273 7.4017 19.3499 7.11928 19.3499C6.8548 19.3499 6.58549 19.257 6.37125 19.0904L6.269 19.001L5.0492 17.7828L4.90991 17.6309C4.57539 17.2373 4.55895 16.9321 4.96954 15.8816L5.1835 15.3557L5.44469 14.7417L5.43924 14.7285L4.84793 14.5082C3.66171 14.0581 3.29614 13.8507 3.12243 13.4722L3.07544 13.3531L3.03619 13.2212C3.01398 13.1369 3.0045 13.0765 3.00065 13.0078L2.9982 12.8945V11.1761C2.9982 11.0531 3.00247 10.9835 3.03311 10.8619C3.14733 10.4082 3.30945 10.2067 4.16346 9.82401L4.5174 9.67116L5.42628 9.30362L5.43251 9.28848L5.09269 8.5387C4.53196 7.26507 4.48552 6.87728 4.8393 6.44415L4.88771 6.38732L5.00233 6.26583L6.21739 5.05353C6.44001 4.82968 6.75843 4.70348 7.06836 4.70348C7.29004 4.70348 7.61553 4.7912 8.13648 4.98851L8.66057 5.19627L9.25471 5.44528L9.27906 5.43514L9.50244 4.83669C10.0503 3.39641 10.2458 3.15555 10.8237 3.02619C10.8965 3.00987 10.9485 3.00292 11.0076 3.00009ZM12.4708 4.79866H11.4672L11.3256 5.1304C11.2719 5.26228 11.2113 5.41633 11.1428 5.59514L10.8292 6.43422C10.7539 6.63288 10.6114 6.79741 10.4281 6.90033L10.3332 6.94652L9.5958 7.25335C9.40964 7.33081 9.20403 7.34311 9.01176 7.29035L8.89827 7.25089L8.02593 6.88319L7.55474 6.69529L7.23803 6.5784L6.5267 7.28811L6.61041 7.49957C6.64313 7.57922 6.68078 7.66827 6.72372 7.76747L6.86871 8.09628L7.23234 8.89123C7.31944 9.08053 7.33765 9.29292 7.28623 9.49228L7.24702 9.61005L6.94552 10.3427C6.86569 10.5367 6.72112 10.6957 6.53809 10.7937L6.44349 10.8375L5.46448 11.231L4.97508 11.4408L4.79856 11.5226V12.5399L5.00977 12.6315C5.08974 12.6649 5.17953 12.7014 5.27995 12.7412L5.61393 12.8708L6.42548 13.1722C6.63007 13.2459 6.79985 13.3907 6.90515 13.5783L6.95229 13.6755L7.25383 14.4061C7.33127 14.5936 7.34261 14.8007 7.28816 14.9938L7.24759 15.1077L6.89762 15.929L6.67813 16.4707L6.57121 16.7584L7.28259 17.4689L7.49441 17.3852C7.57243 17.3534 7.65794 17.3177 7.75115 17.278L8.40455 16.9898L8.87575 16.7729C9.07293 16.6787 9.29643 16.6599 9.50467 16.7178L9.60732 16.7531L10.349 17.0593C10.5456 17.1404 10.706 17.2881 10.8034 17.4746L10.8468 17.571L11.0313 18.0368L11.294 18.6755L11.446 19.0245L11.5284 19.2015H12.5351L12.6788 18.8627L12.866 18.3845L13.1709 17.5671C13.2461 17.3667 13.3897 17.2008 13.5746 17.0975L13.6704 17.0512L14.4089 16.7464C14.5929 16.6705 14.7957 16.6581 14.9859 16.7092L15.0982 16.7474L15.7936 17.0424L16.3012 17.2491L16.5789 17.3563L16.7622 17.4226L17.4744 16.7117L17.3372 16.373L17.1313 15.9035L16.767 15.1092C16.6796 14.9196 16.6613 14.7067 16.7129 14.507L16.7523 14.389L17.0533 13.6595C17.1327 13.467 17.2759 13.3091 17.4573 13.211L17.551 13.1671L18.3802 12.8338L18.8034 12.6564L18.9198 12.6057L19.2014 12.4769V11.4605L18.9191 11.34L18.5366 11.1887L17.5713 10.8293C17.3672 10.755 17.198 10.6099 17.0932 10.4224L17.0463 10.3252L16.7453 9.59168C16.6685 9.40455 16.6574 9.19818 16.7116 9.00569L16.752 8.89213L17.0315 8.23869C17.1043 8.06589 17.1676 7.91266 17.2223 7.77722L17.3204 7.52955L17.4272 7.24013L16.7155 6.53134L16.5035 6.6152C16.3863 6.663 16.252 6.71973 16.0996 6.78597L15.9412 6.85541L15.1104 7.2322C14.9215 7.3188 14.7096 7.33681 14.5107 7.28552L14.3932 7.24643L13.652 6.94175C13.458 6.86199 13.299 6.71747 13.2009 6.53446L13.157 6.43987L12.8949 5.78419L12.705 5.32483L12.5998 5.08053L12.4708 4.79866ZM12.0004 8.39938C13.9864 8.39938 15.6007 10.0134 15.6007 11.9993C15.6007 13.9853 13.9862 15.6008 12.0004 15.6008C10.014 15.6008 8.39928 13.9856 8.39928 11.9993C8.39928 10.0131 10.0139 8.39938 12.0004 8.39938ZM12.0004 10.1997C11.008 10.1997 10.1996 11.0077 10.1996 11.9993C10.1996 12.9914 11.0085 13.8005 12.0004 13.8005C12.9917 13.8005 13.8004 12.9913 13.8004 11.9993C13.8004 11.0078 12.9921 10.1997 12.0004 10.1997Z"/>
</svg>
